<?xml version="1.0" encoding="UTF-8" standalone="no"?>
<svg
   xmlns:dc="http://purl.org/dc/elements/1.1/"
   xmlns:cc="http://creativecommons.org/ns#"
   xmlns:rdf="http://www.w3.org/1999/02/22-rdf-syntax-ns#"
   xmlns:svg="http://www.w3.org/2000/svg"
   xmlns="http://www.w3.org/2000/svg"
   xmlns:sodipodi="http://sodipodi.sourceforge.net/DTD/sodipodi-0.dtd"
   xmlns:inkscape="http://www.inkscape.org/namespaces/inkscape"
   width="600"
   height="600"
   version="1.1"
   id="svg16"
   sodipodi:docname="White Arrows.svg"
   inkscape:version="1.0.1 (3bc2e813f5, 2020-09-07)">
  <metadata
     id="metadata22">
    <rdf:RDF>
      <cc:Work
         rdf:about="">
        <dc:format>image/svg+xml</dc:format>
        <dc:type
           rdf:resource="http://purl.org/dc/dcmitype/StillImage" />
      </cc:Work>
    </rdf:RDF>
  </metadata>
  <defs
     id="defs20" />
  <sodipodi:namedview
     pagecolor="#ffffff"
     bordercolor="#666666"
     borderopacity="1"
     objecttolerance="10"
     gridtolerance="10"
     guidetolerance="10"
     inkscape:pageopacity="0"
     inkscape:pageshadow="2"
     inkscape:window-width="1366"
     inkscape:window-height="705"
     id="namedview18"
     showgrid="false"
     inkscape:zoom="0.89666667"
     inkscape:cx="300"
     inkscape:cy="300"
     inkscape:window-x="-8"
     inkscape:window-y="-8"
     inkscape:window-maximized="1"
     inkscape:current-layer="svg16" />
  <path
     fill="none"
     stroke="#000"
     stroke-width="5.429"
     d="M5.267 5.276h589.689v589.68H5.267z"
     id="path2" />
  <ellipse
     cx="556.78"
     cy="47.017"
     rx="22.881"
     ry="23.473"
     fill="none"
     stroke="#000"
     stroke-width="5.571"
     id="ellipse4" />
  <path
     d="M221.833 221.925h156.23v156.23h-156.23z"
     stroke="#000"
     stroke-width="5.366"
     id="path6" />
  <path
     d="M371.927 186.607l-71.979-.042-71.982-.041 35.983-65.792L299.93 54.94l35.999 65.834z"
     fill-opacity=".513"
     stroke="#000"
     stroke-width="5.496"
     id="path8" />
  <path
     d="M421.031 371.978l-.066-71.93-.066-71.933 64.245 36.055 64.245 36.056-64.179 35.876z"
     fill-opacity=".513"
     stroke="#000"
     stroke-width="5.427"
     id="path10" />
  <path
     d="M178.718 228.06l-.034 71.981-.031 71.983-63.926-35.972L50.8 300.08l63.957-36.011z"
     fill-opacity=".513"
     stroke="#000"
     stroke-width="5.418"
     id="path12" />
  <path
     d="M227.994 414.21l71.954-.167 71.956-.17-35.908 65.717-35.909 65.716-36.046-65.547z"
     fill-opacity=".513"
     stroke="#000"
     stroke-width="5.488"
     id="path14" />
  <path
     style="fill:#ffffff;stroke-width:1.11524"
     d="m 234.38662,181.97863 c 0.20446,-0.50656 14.92565,-27.56596 32.71375,-60.13201 23.92956,-43.809684 32.66032,-58.872075 33.56579,-57.907991 0.67307,0.716653 15.42731,27.399661 32.78719,59.295571 17.35987,31.89591 31.76909,58.36896 32.02048,58.829 0.25139,0.46003 -29.22404,0.83643 -65.50095,0.83643 -36.2769,0 -65.79072,-0.41446 -65.58626,-0.921 z"
     id="path847" />
  <path
     style="fill:#ffffff;stroke-width:1.11524"
     d="m 423.79182,300 c 0,-36.18959 0.24834,-65.79926 0.55186,-65.79926 0.77552,0 115.76488,64.56953 116.75804,65.5627 0.69896,0.69894 -114.66987,66.03582 -116.60298,66.03582 -0.38881,0 -0.70692,-29.60967 -0.70692,-65.79926 z"
     id="path849" />
  <path
     style="fill:#ffffff;stroke-width:1.11524"
     d="m 267.13596,478.50139 c -17.76854,-32.42637 -32.48973,-59.50693 -32.71376,-60.17903 -0.29222,-0.87665 18.24049,-1.22199 65.5778,-1.22199 39.28513,0 65.83471,0.41166 65.61338,1.01734 -0.98904,2.70669 -65.12933,119.39808 -65.61338,119.37142 -0.30669,-0.0169 -15.09551,-26.56137 -32.86404,-58.98774 z"
     id="path851" />
</svg>
